# xmcd
#
# Track frame offsets:
#	150
#	18152
#	34045
#	54770
#	72712
#	87370
#	104555
#	124657
#	139020
#	165165
#	174675
#	182230
#	198352
#	212627
#	239852
#
# Disc length: 3536 seconds
#
# Revision: 0
# Processed by: cddbd v1.5.2PL0 Copyright (c) Steve Scherf et al.
# Submitted via: dBpowerAMP V4.0
#
DISCID=d30dce0f
DTITLE=Blue Valentine  - Train coming blues 
DYEAR=1995
DGENRE=Blues
TTITLE0=Take a train 
TTITLE1=Train coming blues
TTITLE2=Baby What you want me to do
TTITLE3=I don't wancha
TTITLE4=I don't wancha
TTITLE5=Doctor Blue
TTITLE6=You gonna need somebody on your bound
TTITLE7=I'm in the mood
TTITLE8=Blues della luna piena
TTITLE9=In the morning
TTITLE10=Baby Please don't go
TTITLE11=Laughing rag
TTITLE12=walking blues
TTITLE13=summertime
TTITLE14=il tempo di morire
EXTD=
EXTT0=
EXTT1=
EXTT2=
EXTT3=
EXTT4=
EXTT5=
EXTT6=
EXTT7=
EXTT8=
EXTT9=
EXTT10=
EXTT11=
EXTT12=
EXTT13=
EXTT14=
PLAYORDER=
